<?xml version="1.0" encoding="UTF-8"?>
<svg id="Layer_1" xmlns="http://www.w3.org/2000/svg" version="1.1" viewBox="0 0 3427 2262">
  <!-- Generator: Adobe Illustrator 30.0.0, SVG Export Plug-In . SVG Version: 2.1.1 Build 123)  -->
  <defs>
    <style>
      .st0 {
        fill: none;
      }

      .st1 {
        fill: #fff;
      }
    </style>
  </defs>
  <polygon id="level-1" class="st1" points="977.1 1560.8 1083.3 1560.8 1124.4 1615.5 1151.8 1615.5 1172.4 1593.9 1185 1627 1252.3 1646.4 1295.7 1637.3 1327.7 1597.3 1408.7 1632.7 1440.7 1603.6 1468.1 1596.2 1495.5 1646.4 1558.3 1656.7 1602.9 1630.4 1646.3 1633.8 1691.9 1580.1 1715.9 1608.7 1775.3 1593.9 1797 1614.4 1813 1628.1 1866.6 1614.4 1912.3 1628.1 1951.1 1615.5 1977.4 1603 1999.1 1636.1 2042.5 1640.7 2080.2 1604.1 2166.9 1644.1 2228.6 1608.7 2293.7 1625.8 2323.4 1576.7 2354.2 1608.7 2405.6 1588.2 2425 1566.5 2447.8 1598.4 2485.5 1629.3 2474.1 1689.8 2034.7 1693.6 1149.6 1683.8 972.7 1623.6 963.3 1564.7 977.1 1560.8"/>
  <path id="level-3" class="st1" d="M930.6,1398l55.7,61.4,80.7-10.7,45,20,40-18.6,42.1-52.1-7.9-32.1,7.9-20.7,70.7-53.6,39.3,25,60.7,77.1,15,6.4,14.3-3.6,56.4,41.4,66.4,13.6v-35l-55-36.4,15-48.6,28.6-2.9,50.7-11.4,50.7,19.3,17.9,29.3,39.3,22.9,37.9-12.9,53.6,32.9v42.1l37.1,27.9h37.1l14.3-86.4,31.4-43.6,25.7,16.4,57.9,10.7,42.1-67.8,29.3,16.4,58.6,15,20,28.6v60l-61.4,17.9-2.9,29.3,5,23.6,94.3-19.3-30-66.4-3.6-75,17.1-10,61.4-2.9,19.3-15,37.9,14.3,30.7,50.7,69.3,11.4,52.1-34.3,25.7,15,35.7-17.9,8.6-72.9-71.4-2.9-25,76.4-67.1-32.1-3.6-67.8s-149.2-34.4-199.5-45.7c-9.9-2.2,36.6-42.8,36.3-42.8s-46.4-35.2-51.5-32.3c-19.8,11.2-57.9-24-79.5-11.2-3.9,2.3-12.1,64.4-54.5,87-37,19.7,23.8,59.3,23.8,59.3l-5,47.9-20,20.7-49.3-7.9-75-57.9-26.4-87.1-50,52.9,14.3,88.6-90.7,17.9-46.4-41.4-38.6-60.7-64.3,30.7-94.3-46.4-7.9,50,22,75.6-5.7,7.7-69.2-2.5-37.9-57.9-21.4-51.4-76.4-5-35.7,87.2-66.4,23.6-73.6,4.3-27.1-80.7-85.7,14.3-15,111.4h0c0,0,0-.3,0-.3Z"/>
  <path id="man-0" class="st1" d="M1053,920.4c-8.8-1.4-18.1,5.7-19,14.6s6.6,17.8,15.5,18.3c8,.5,13.1-2.4,18.1,1.4,4.2,3.1,2.3,7.3,5.3,9.9,8.5,7.4,32.4-19.3,48.1-12.7,7,2.9,3.3,8.6,18.4,40.8,5.1,10.9,8.9,17.5,6.4,25.2-2.2,7.1-8.4,11-11.9,13.3-12.3,7.9-19.6,2.9-35.1,10.4-5,2.4-10.4,5.2-14.9,11.2-5.4,7.3-6,14.8-6.9,24.7-.8,9.2-1.3,16.2,3.2,21.5,2.1,2.5,4.4,3.6,9.2,5.5,17.4,6.8,42.8,13.5,44.2,19.1,0,.4.4,2.2,1.8,3,.9.5,2,.3,3,.3,9.2-.3,15.2,11.1,13.2,20.1-2.1,9-9.2,15.8-15.9,22.2-21.3,20.3-41.5,41.9-60.4,64.5-5.8,6.9-11.5,14.1-14.8,22.4-3,7.6-3.9,15.8-4.4,24-.9,14.2-.6,28.4.8,42.5.7,6.5,2,13.7,7.3,17.5,3.4,2.4,7.7,2.9,11.8,3.1,18,1.1,36.2-1.1,53.9-4.4,15-2.7,30.1-6.4,43.5-13.7,13.4-7.4,25-19,29.6-33.5,4.6-14.6,1.7-30.4,2.3-45.7.5-15.3,6.5-32.6,20.9-37.9,4.8-1.8,10.1-2,15.3-2.6,15.1-1.6,29.6-6.6,44-11.5,7.8-2.7,16.2-5.7,20.8-12.5,2.5-3.6,3.7-8,4.8-12.3,5.6-21.1,11.2-42.1,16.8-63.2,3-11.4,6.1-23.2,4.3-34.8-1.9-12.1-9.3-23.2-19.7-29.6-4.8-3-10.2-4.9-14.3-8.8-4.4-4.1-6.9-9.7-10.7-14.5-11-14-30.9-18-43.7-30.4-4.8-4.7-8.4-10.4-12.2-16-15.2-22-34-41.5-55.5-57.4-4.9-3.6-10-7.1-15.7-9.1-10.6-3.7-22.3-2.1-33.4-.4-11.3,1.7-22.5,3.4-33.8,5.1-13.3-.6-27.9,4.5-39.9,10.4h-.3Z"/>
  <path id="man-1" class="st1" d="M1271,1299.9l-43.8,20.5-15.8,15.4-16.8,7.7v16.5l-2.8,12.1,22.4,27.5-40.1,85.8-11.6,19.1-63.9,56.4,17.7,36.4,25.7,18.2,28-12.6,27.5,23.8,41,2.8,30.3-5.6,2.3-52.2-49-38.2,4.5-18.9,34.6-44.1,60.6-9.3,3.7,58.1,26.6,24.9,71.2-2.3,24-41.5,2.3-66.2h-22.4l-18.7,86.4s-14.9-4.6-34.8-7.9c-12.6-2.1-26.2-6-26.2-4.2,0,9.5.4-33.1.4-33.1l1.3-53.2-7.8-7.9-12.6-42.8-11.2-40.6-24.7-30.8h-22v-.2Z"/>
  <polygon id="man-2" class="st1" points="1725.1 1426.2 1725.1 1506.4 1659.8 1510.1 1650.9 1426.2 1669.2 1421.9 1665.9 1394.7 1642.5 1377.9 1619.6 1360.4 1594.9 1334.8 1571.2 1319.1 1544 1319.1 1523.5 1323.8 1499.4 1335.8 1470 1350.1 1474.4 1388.2 1504.3 1400.7 1541.3 1420.8 1542.4 1499.1 1560.9 1542.1 1511.4 1597.6 1515.2 1629.6 1534.2 1637.9 1667 1605.2 1656.1 1575.3 1616.4 1556.3 1614.6 1502.2 1627.8 1499.1 1644.7 1533.4 1725.1 1530.7 1741.5 1515.5 1752.4 1452.9 1747.5 1408.3 1727.3 1414.8 1725.1 1426.2"/>
  <polygon id="man-3" class="st1" points="2075 1337.9 2048.4 1328.9 2023.8 1324.5 2001 1309.9 1995.5 1319.1 1991.2 1344.1 1962.3 1393.1 1940.9 1417.6 1939.6 1526.4 1872.7 1527.8 1864.9 1437 1859 1418.8 1835 1427.5 1850.8 1547 1902.9 1559 1910.6 1614.5 1952.5 1614.5 1974.9 1603.6 2040.6 1614.5 2079.8 1563.9 2061.3 1555.2 2050.4 1535.6 2054.8 1499.7 2047.2 1492.6 2044.5 1464.3 2052.6 1432.8 2109.8 1414.3 2109.8 1362.6 2075 1337.9"/>
  <polygon id="man-4" class="st1" points="2183.5 1325.3 2169.2 1325.3 2151.3 1326.9 2125 1337.8 2109.8 1362.6 2121.4 1423.3 2183.5 1437.6 2185.1 1485.4 2194.5 1530.4 2165.9 1579.4 2169.6 1614.5 2208.4 1630.4 2220.2 1614.5 2294.2 1614.5 2305.6 1581.4 2269.4 1558.6 2269.7 1548.7 2261.1 1534.9 2255.8 1509.5 2297.4 1485.8 2335.4 1508.3 2404.4 1523.4 2461.6 1479.7 2444.9 1411.5 2424.6 1412.3 2400.8 1496.2 2337.5 1479 2351.8 1398 2344.8 1386.2 2323.6 1389.5 2272.9 1371.1 2247.2 1325.3 2208.4 1309.9 2183.5 1325.3"/>
  <path id="water-toilet" class="st1" d="M1096.9,968.5c7.8,0,21.5,2.9,26.3,4.6s10.1,10.7,11.1,14.5,1.2,7.9,3.5,11c1.1,1.5,2.7,2.6,3.5,4.3.7,1.6.7,3.4.5,5.2-.7,7.3,1.4,15.4-4,20.4-7.8,7.4-23.8,5.9-34.1,8.7-5.9,1.6-14,7.1-19.9,15.6-4.6,6.7-7.7,16.4-8.2,18.5-2.2,7.7-6,14.7-8.8,22.3-3.4,9.2-10.6,18.6-20.4,18.5-9.7,0-16.7-9.1-21-17.8-15.5-31.3-15.1-70,1-101.1,1.1-2.2,2.3-4.3,4.1-6,1.7-1.6,3.8-2.7,5.8-3.7,20.9-10.3,49.9-14.9,60.6-14.8h0v-.2Z"/>
  <path id="droplet-1-1" class="st1" d="M1415.8,786.2c0,50.2-18.7,90.9-41.7,90.9s-12.6-3.3-18.1-9c-5.5-5.8-16-.2-18.7-5.5-3.7-7,2.7-23.3.3-32.7s-5.1-27.8-5.1-43.6,3.2-40.2,8.7-55.5c1.5-4.3,4.1-8.3,7.4-11.9,12.7-14.1,41.9-16.4,43.7-14.5,13.9,14.7,23.5,45.8,23.5,81.9h0Z"/>
  <path id="droplet-1-2" class="st1" d="M1452,965c0,4.2,14,22.6,10.4,26.3s-2.1,13.4-6.2,14.1c-12.6,2.2-34.4-10.3-35.9-3.7-7.7,32.6-24.5,55.2-44,55.2s-15.8-4-22.6-10.9-20.2,8.6-23.2,3.3c-1.7-3-4.6-13.1-2.7-20.8s8.5-12.9,7.3-16.7c-4.6-14.5-7.3-31.7-7.3-50,0-52.5,21.7-95.2,48.5-95.2s44,34.3,47.8,79.3,6.4,11.1,9.2,14.6c8.4,10.5,18.7.6,18.7,4.6h0Z"/>
  <polygon id="droplet-1-3" class="st1" points="1374.1 1064.8 1364.5 1099.7 1344.9 1148.1 1367.4 1173.2 1421.4 1183.8 1433.3 1177.8 1433.3 1160.8 1418.4 1146.4 1406.1 1102.6 1380.2 1061.2 1374.1 1064.8"/>
  <path id="droplet-2-1" class="st1" d="M1662.7,715.7l-6.4,17.4-33.6,14-11,18.5,8.9,17.6h12.7l5.9,39.1,31,12.3s28.5-14.4,29.3-28-1.3-33.6-10.6-52.2-26.3-38.7-26.3-38.7h0Z"/>
  <path id="droplet-2-2" class="st1" d="M1665.6,860.9l-14,38.2-25.5,50.1-11.9,29.3s-19.6,16.6-20,21.2,0,19.6,0,19.6h17.4l22.1-15.3,37.4,9.3,31.9-17.8,11-27.6,17.4-11.5-2.5-18.3-29.1-25.3-32-46.5-2.1-5.5h-.1Z"/>
  <polygon id="droplet-2-3" class="st1" points="1662.8 1031.3 1653.7 1060.3 1626.1 1105.6 1630.4 1129.3 1650.8 1146 1681.4 1141.7 1696.2 1155.3 1711.5 1161.7 1717 1148.9 1714.5 1132.8 1699.8 1109 1685.6 1069.5 1671.6 1038.9 1662.8 1031.3"/>
  <polygon id="droplet-3-1" class="st1" points="1949.8 741.8 1944.8 771.7 1914.7 825.2 1922.5 857.7 1951.7 863.5 1991.3 852.9 1988.5 807 1967.1 758.7 1949.8 741.8"/>
  <path id="droplet-3-2" class="st1" d="M1948.2,879.8l-29.7,54.2v32.3l19.7,22.5,34,2.6h29v-43.1s-20.4-16.7-20.8-17.3-32.3-51.1-32.3-51.1h.1Z"/>
  <polygon id="droplet-3-3" class="st1" points="1945.5 1026.6 1907.4 1121.1 1918.5 1153 1955.9 1174.5 1986.6 1174.5 2001.3 1134 1995.2 1050.5 1975.6 1031.3 1945.5 1026.6"/>
  <polygon id="droplet-4-1" class="st1" points="2310 766.4 2295.3 807.5 2278.1 847.4 2289.1 879.8 2335.7 886.1 2348.6 902.7 2371.9 902.7 2371.9 879.8 2354.2 845 2341.9 802.7 2319.2 766.4 2310 766.4"/>
  <polygon id="droplet-4-2" class="st1" points="2310.6 907 2278.1 957.3 2257.8 970.2 2257.8 989.2 2265.8 995.9 2264.6 1012.5 2267 1034 2289.7 1040.1 2307.5 1016.8 2337.6 1011.9 2349.2 986.1 2343.7 962.8 2325 935.6 2317.9 907 2310.6 907"/>
  <polygon id="droplet-4-3" class="st1" points="2316.7 1045.6 2282.4 1120.5 2282.4 1146.3 2257.8 1169.6 2251.7 1190.4 2265.2 1199.6 2291 1199.6 2294 1174.5 2319.8 1186.7 2408.1 1184.3 2387.3 1126.6 2383 1105.8 2349.2 1075.1 2316.7 1045.6"/>
  <polygon id="bucketwater-1" class="st1" points="1351.5 1437.9 1350.6 1505.4 1410.3 1516.4 1426.4 1446.4 1389.4 1437.9 1351.5 1437.9"/>
  <polygon id="bucketwater-2" class="st1" points="1650.9 1434.7 1659.8 1510.1 1725.1 1506.4 1725.1 1434.7 1683.2 1426.2 1650.9 1434.7"/>
  <polygon id="bucketwater-3" class="st1" points="1864.9 1437 1872.7 1527.8 1939.6 1526.4 1940.9 1427.5 1864.9 1437"/>
  <polygon id="bucketwater-4" class="st1" points="2349.1 1409.3 2337.7 1481 2398 1497.5 2422.4 1425 2405.3 1407.9 2349.1 1409.3"/>
  <rect id="life1" class="st1" x="962.3" y="581.1" width="48.9" height="86.2"/>
  <rect id="life2" class="st1" x="1021.3" y="581.1" width="48.9" height="86.2"/>
  <rect id="life3" class="st1" x="1090" y="581.1" width="48.9" height="86.2"/>
  <path id="crack1" class="st1" d="M1517,708c-15.2-12.2-38.5-26.5-66.4-25.7-24.4.7-41.8,12.6-49.1,17-27.4,16.7-77.4,29.5-176.6,8.6v-138.9h292.1v139h0Z"/>
  <path id="crack2" class="st1" d="M1571,562.8c-13.7,13.4-21.3,38.4-13.3,56.6,13.1,30,59.5,21.6,72.6,54,7.1,17.7-2.1,31.7,8.9,40.7,9.6,7.9,26.4,5.2,37.2,0,17.2-8.3,15.3-21.1,37.2-39.8,6-5.2,15.2-13,28.3-17.7,28.2-10.2,43.7,4.9,57.5-3.5,20-12.1,24.4-65.7,0-90.3-19.2-19.4-39.6-4-127.5-7.1-60.1-2.1-82.9-10.5-100.9,7.1h0Z"/>
  <path id="crack3" class="st1" d="M1870.2,561.1c-15.5,9.9-22.1,26.8-24.8,33.6-3,7.6-10.2,26.3-4.4,45.2,5.3,17.1,29,29.9,76.1,54.9,31.9,16.9,38.3,18,45.2,15.9,13.7-4.1,24.9-19.9,41.6-43.4,5.2-7.3,8.1-12.2,15.1-17.7,4.6-3.6,9.8-6.6,30.1-13.5,25.7-8.7,28.6-7.8,34.5-13.1,9.3-8.3,16.2-23.1,11.5-30.1-5.3-7.9-20.5,1.2-38-7.1-13.3-6.3-12.8-15.4-23-24.8-19.4-17.9-40.2-2.8-110.6-5.3-26.7-1-39-3.7-53.1,5.3h-.2Z"/>
  <path id="crack4" class="st1" d="M2311.2,739.3c-1.2-.4-1.6-1.6-2.6-2.8-1.8-2.2-4.3-2.7-5.4-3.1-4.6-1.6-19.6-13.5-24.9-22-12-18.8,10-41.1,0-52.1-9-9.9-29.3,5.6-50.4-7.1-9.8-5.8-7-10.1-17.7-16.7-19.2-11.9-35.4-2.8-42.5-12.5-5.6-7.7-.5-20.1,3.5-30.1,2.3-5.7,13.1-30.3,33.6-40.7,31.3-15.9,50,18.6,106.2,20.4,49.2,1.5,74.9-23.6,109.8-7.1,4.5,2.2,18.7,8.9,20.3,20.3,1.2,8.6-5.5,13.3-12.4,24.8-14.4,24-2.7,33.5-15.9,61.1-8,16.8-12.2,13.2-23.9,35.4-12.7,24.1-9.3,31.5-17.7,35.4-15.5,7.1-51.3-7.2-56.6-4-.3.2-1.9,1.3-3.3.8h-.1Z"/>
  <path id="toilet" class="st1" d="M921.3,1259.7c8.5,22.6,115.5-5.6,154.5,6.9,2.2.7,8.9,3,12.1,0,4-3.8,0-14.1-6-28.5-18.1-42.4-25.6-50-21.6-58.7,4.1-8.9,13.6-4.4,29.3-18.1,3.8-3.4,14.7-13.6,19.9-30.2,1.9-6.2,7.9-25.2,0-31.9-7-6-18.2,3.7-44.9,7.8-18.6,2.9-36.2,5.5-47.2-3.4-12.1-9.8-11.5-29.6-10.6-61.3.9-30,6.3-44.1-3.4-61.3-2.5-4.3-7.3-12.8-16.4-15.5-11.9-3.6-23.4,4.9-41.4,18.1-12.3,9-20.8,15.5-24.2,26.7-2.8,9.3-.8,17.5,0,20.7,9.8,42.2,2.9,136.8-1.4,196.8,0,2.1-.8,9.7,0,19.9.5,6.8.7,10.2,1.4,12.1h-.1Z"/>
  <polygon id="new" class="st1" points="1987.1 711.4 1987.1 711.5 1891.3 711.5 1891.3 701.3 1796.4 701.3 1796.4 711.5 1787.4 711.5 1776.6 711.5 1754.6 689.7 1726.9 689 1714.2 694.3 1704.9 700.8 1685.3 711.5 1606.1 711.5 1606.1 701.3 1498.6 701.3 1498.6 829.9 1606.1 829.9 1606.1 723.3 1685.3 723.3 1703.9 704.2 1714 695.9 1728.5 690 1750.3 690.4 1759.6 696.4 1768.4 704.6 1770.8 707.5 1775 711.9 1781 723.3 1796.4 723.3 1796.4 829.9 1891.3 829.9 1891.3 723.3 1987.1 723.3 1987.1 842.8 2134.6 842.8 2134.6 711.4 1987.1 711.4"/>
  <polygon id="game" class="st1" points="2096.5 854.9 2096.5 863.4 1910.3 863.4 1910.3 854.9 1782.6 854.9 1782.6 863.4 1757.8 863.4 1747 866.4 1729.5 863.4 1606.1 863.4 1606.1 854.9 1490 854.9 1490 863.4 1481.2 863.4 1466.1 849.9 1438.5 849.5 1405.2 863.4 1327.8 863.4 1327.8 854.9 1261.6 850.7 1207.8 854.9 1207.8 974.9 1327.8 974.9 1327.8 869.6 1415.8 869.6 1423.9 859.9 1429.6 855 1440.5 850.8 1454.7 850.7 1465.3 853.4 1474.1 860.3 1482.8 869.6 1490 869.6 1490 971 1606.1 971 1606.1 869.6 1782.6 869.6 1782.6 976.6 1910.3 976.6 1910.3 869.6 2096.5 869.6 2096.5 974.9 2195.1 974.9 2195.1 854.9 2096.5 854.9"/>
  <polygon id="over" class="st1" points="2397 997.3 2397 1022.1 2324 1022.1 2277.7 1035.4 2247.3 1022.1 2195.1 1022.1 2195.1 997.3 2096.5 997.3 2096.5 1022.1 1899.9 1022.1 1899.9 991.3 1773.1 991.3 1773.1 1022.1 1581.5 1022.1 1581.5 1001.6 1527.4 997.6 1462.4 1001.6 1462.4 1120.7 1581.5 1120.7 1581.5 1036.1 1773.1 1036.1 1773.1 1129.3 1899.9 1129.3 1899.9 1036.1 2096.5 1036.1 2096.5 1120.7 2195.1 1120.7 2195.1 1036.1 2261.9 1036.1 2292.1 1045.6 2311.6 1036.1 2397 1036.1 2397 1120.7 2501.5 1120.7 2501.5 997.3 2397 997.3"/>
  <polygon id="droplet-3-4" class="st1" points="1959.9 1228.5 1938.8 1197.2 1891.5 1273.3 1899.5 1312.5 1909.8 1317.4 1889.2 1357.4 1886.7 1355.8 1864.9 1386 1873.2 1407.1 1891.5 1407.1 1895.8 1381.7 1891.5 1358.9 1889.3 1357.5 1911.2 1318.1 1934.5 1329.1 1954.4 1305.8 1974.9 1272 1959.9 1228.5"/>
  <polygon id="droplet-4-4" class="st1" points="2426.1 1374.5 2397.7 1356.3 2397.7 1359.2 2383.1 1327.7 2394 1316.8 2388.5 1267.7 2356.6 1240.8 2329.9 1217.4 2314.3 1283.7 2333.3 1332.8 2371.9 1338.9 2381.1 1329.7 2397.7 1360.1 2397.7 1380.2 2405.4 1401.3 2422.4 1404.2 2431.3 1395.1 2426.1 1374.5"/>
  <path id="level-2" class="st1" d="M2433.9,1522.9l-12.7-8.6-23.3,17.6-43.8-19.2-86.8-14.7-15.6,6.1,17.6,48.3,36.9,22.1,6.2-2-2.2,13.8-25.9,22.5-31,5.7-32.5-1.2-24.7,12.7-23.8-8-13.4-20.2-12.3-23.9,23.3-4.6,18-37.3-4.9-17.2-74.1-12.7-50.8,3.3-5.7,16.4v15.5l8.6,14.3,25.6,10.2-39.2,57.2-69.9-15.9-24.8,11.5h-41.9l-25.3-25.8,5.3-34.6-50.8.8-29.1-75.3-63.5,8.2-15.1,42.7-12.7,10.1-13.3,2-42-8.6-21.7-5.7-17.2-26.6-9.8.8v39.3l11.9,27,38.2,3.6,2,26.7-26.8,23.8-63.1,6.7-62.5,14.4-22.9-22.3-18.9-60.1,78.2-20.7-13.9-41-76.6-26.2-20.4,56.1-42.6,17.2-67.1-8.5-8.2-30-63.4-29-16.4,32.3,6.6,38.1,35.4,4.4-.8,44.1-29.8,34.7-47.6-3.6-36.9-21.9-35.1,9.5-36.2-48.8-2.5-41.8,14.7.8,53.6-29,9.4-11.5-24.2-38.1-30.3,16-52-6.6h0l-23.3,23.4s-61-8.6-63.9-9-6.2,28.7-6.2,28.7c0,0,49.9,39.3,49.9,37.3s38.9-13.5,38.9-13.5l29.5,1.5,2,44.9,39.3,49.7,37.2-10.4,35.8,22.5,49.2,2.2,31.2-33.4,1.8-47,9.4,1.2,5.7,13.5,79,32.3,68-34.4,19.6-5.2,18.6,61.4,25,23.5,62.8-14.6,65.5-5.5,28.6-25.3-2.4-29.2,58,5.5,69.6-21.7,35.6,41.4,45.6-5.3,25.6,21.9,50,1,24.3-10.7,70.8,16.9,43-58.1,3.9,1.5,47.7,9.4,31.2,48.7,20,4,2.4.5,24.7-13.3,36,1.7,19.8-3.5,8.8-1.1,28.6-26.3,3.1-14.3,11.7-3.8,51.6,21.7,48.7-34,13.4,30,36.1-8.8,11.9-20.1-56.9-33.2h.1Z"/>
  <path id="droplet-2-4" class="st1" d="M1701.7,1331.2l19.6-21.2,3-30.2-8.9-23.4-29.8-34-14-22.5-11.4-22.9-28,68.4-4.3,38.9,16.2,31.6,37.8,20,5.3-1.2,6.7,44.1-3.1,1h0l1.4,13.9s-4.5,13.5-4,14.1,6.5,14.2,6.5,14.2l14.2,1.9,4.9-6.4v-21.2l-16.6-18.7h0l-7.7-43.4,12.6-3h-.3Z"/>
  <polygon id="droplet-1-4" class="st1" points="1417.4 1411.4 1394.8 1397 1389 1341.9 1404.8 1340.5 1415.3 1312.5 1405.2 1281 1386.1 1250.9 1374.7 1225 1344.9 1284.9 1349.6 1324.8 1368.7 1343.5 1386.4 1342.1 1391.9 1397.1 1383.9 1399.1 1389.8 1424.5 1399.8 1444.6 1419.6 1444.6 1426.6 1437.5 1417.4 1411.4"/>
  <polygon id="mush12" class="st1" points="1467.1 792.4 1485.9 775.1 1480 744 1504.2 736.5 1498.6 701.3 1463 687.5 1423 695.3 1411.6 722.5 1406.9 740 1415.8 744 1429.5 745.1 1436.4 775.1 1440.2 788.6 1467.1 792.4"/>
  <polygon id="mush11" class="st1" points="1762.8 788.1 1721.9 805.3 1721.9 869.3 1771.4 873.6 1797.2 845.6 1790.8 802.6 1762.8 788.1"/>
  <polygon id="mush10" class="st1" points="2215.6 693.5 2205.3 700.5 2205.3 756.9 2230.1 767.7 2282.2 732.7 2261.3 685.9 2215.6 693.5"/>
  <polygon id="mush9" class="st1" points="1308.5 829.9 1327.8 834.6 1334.6 814.9 1327.2 789.7 1291.8 780.6 1265.5 792.4 1265.5 843.5 1281 854.9 1297.2 854.9 1308.5 829.9"/>
  <polygon id="mush8" class="st1" points="1719.8 687.5 1690.2 717.6 1690.2 737 1715.5 740 1712.3 788.1 1780 778.4 1784.3 696.7 1748.9 687.5 1719.8 687.5"/>
  <polygon id="mush7" class="st1" points="2089.2 642.4 2071.4 663.4 2080.3 670.4 2071.4 691.8 2093 704.2 2113.4 687.5 2128.5 687.5 2128.5 645.1 2089.2 642.4"/>
  <polygon id="mush6" class="st1" points="2174.4 755.8 2133.3 772.5 2133.3 819.3 2205.3 844 2215.6 790.3 2190.3 760.2 2174.4 755.8"/>
  <polygon id="mush5" class="st1" points="1473 919.8 1453.1 925.8 1437 906.4 1437 892.9 1419.3 900.5 1411.6 887.6 1421.9 854.9 1444.5 847.8 1477.3 854.9 1482.1 866.4 1477.3 877.1 1482.1 892.4 1485.9 912.9 1473 919.8"/>
  <polygon id="mush4" class="st1" points="2150.5 659.1 2133.3 695.1 2133.3 712.3 2176.3 748.9 2205.3 741.3 2205.3 700.5 2215.6 673.3 2150.5 659.1"/>
  <polygon id="mush3" class="st1" points="2232.2 799.9 2215.6 822.5 2240.8 863.4 2276.3 854.3 2265.6 808 2232.2 799.9"/>
  <polygon id="mush2" class="st1" points="2476.3 726.8 2429 729.5 2436 659.1 2476.3 655.8 2502.7 683.2 2502.7 722 2476.3 726.8"/>
  <polygon id="mush1" class="st1" points="2488.2 729.5 2441.4 729.5 2423.6 755.8 2434.4 775.2 2497.3 781.1 2488.2 729.5"/>
  <rect id="outer_frame" class="st0" width="3427" height="2262"/>
</svg>