<?xml version="1.0" encoding="UTF-8"?>
<svg id="Layer_1" xmlns="http://www.w3.org/2000/svg" version="1.1" viewBox="0 0 4800 3398">
  <!-- Generator: Adobe Illustrator 30.0.0, SVG Export Plug-In . SVG Version: 2.1.1 Build 123)  -->
  <defs>
    <style>
      .st0 {
        fill: #fff;
      }
    </style>
  </defs>
  <polygon id="level-1" class="st0" points="191.7 2999.8 500.7 2999.8 620.4 3159.2 700.1 3159.2 759.9 3096.1 796.5 3192.5 992.5 3249 1118.8 3222.4 1211.8 3106.1 1447.7 3209.1 1540.8 3124.4 1620.5 3102.8 1700.3 3249 1883 3278.9 2012.6 3202.4 2138.9 3212.4 2271.8 3056.2 2341.5 3139.3 2514.3 3096.1 2577.5 3155.9 2624 3195.8 2780.1 3155.9 2913.1 3195.8 3026 3159.2 3102.4 3122.7 3165.6 3219.1 3291.8 3232.3 3401.5 3126 3654 3242.3 3833.5 3139.3 4022.8 3189.1 4109.2 3046.3 4199 3139.3 4348.5 3079.5 4405 3016.4 4471.4 3109.4 4581.1 3199.1 4547.8 3375.2 3269.3 3386.4 693.5 3357.9 178.8 3182.7 151.4 3011.2 191.7 2999.8"/>
  <path id="level-3" class="st0" d="M56.4,2526.1l162.1,178.7,234.9-31.2,130.9,58.2,116.4-54,122.6-151.7-22.9-93.5,22.9-60.3,205.8-155.9,114.3,72.7,176.7,224.5,43.6,18.7,41.6-10.4,164.2,120.5,193.3,39.5v-101.8l-160-106,43.6-141.3,83.1-8.3,147.6-33.3,147.6,56.1,52,85.2,114.3,66.5,110.2-37.4,155.9,95.6v122.6l108.1,81.1h108.1l41.6-251.5,91.4-126.8,74.8,47.8,168.4,31.2,122.6-197.4,85.2,47.8,170.4,43.6,58.2,83.1v174.6l-178.7,52-8.3,85.2,14.5,68.6,274.3-56.1-87.3-193.3-10.4-218.2,49.9-29.1,178.7-8.3,56.1-43.6,110.2,41.6,89.4,147.6,201.6,33.3,151.7-99.8,74.8,43.6,103.9-52,24.9-212-207.8-8.3-72.7,222.4-195.4-93.5-10.4-197.4s-621.4-143.4-627.7-143.4-318,185-318,185l-14.5,139.3-58.2,60.3-143.4-22.9-218.2-168.4-76.9-253.6-145.5,153.8,41.6,257.7-264,52-135.1-120.5-112.2-176.7-187.1,89.4-274.3-135.1-22.9,145.5,63.9,219.9-16.5,22.4-201.3-7.4-110.2-168.4-62.4-149.6-222.4-14.5-103.9,253.6-193.3,68.6-214.1,12.5-79-234.9-249.4,41.6-43.6,324.2v-.3h0Z"/>
  <path id="man-0" class="st0" d="M412.6,1136.4c-25.7-4.1-52.6,16.5-55.4,42.4s19.1,51.8,45.1,53.3c23.3,1.4,38-7,52.7,4,12.1,9,6.7,21.2,15.3,28.8,24.6,21.6,94.2-56.1,140.1-36.9,20.3,8.5,9.7,25,53.4,118.7,14.8,31.7,25.8,50.9,18.7,73.4-6.5,20.6-24.4,32.1-34.7,38.7-35.8,22.9-57,8.3-102,30.2-14.5,7.1-30.4,15.1-43.4,32.5-15.7,21.1-17.6,43.1-20,72-2.2,26.7-3.7,47.2,9.3,62.7,6,7.2,12.9,10.6,26.7,16,50.7,19.9,124.6,39.4,128.6,55.7.3,1.2,1.1,6.5,5.3,8.8,2.6,1.4,5.8,1,8.8.9,26.9-.9,44.3,32.2,38.3,58.5-6,26.2-26.8,46.1-46.2,64.6-62.1,59.1-120.7,121.8-175.7,187.6-16.8,20.1-33.5,40.9-43.2,65.3-8.8,22.1-11.4,46.1-12.9,69.9-2.5,41.2-1.7,82.6,2.4,123.6,1.9,18.9,5.7,39.9,21.2,50.9,9.8,6.9,22.4,8.3,34.4,9,52.5,3.1,105.2-3.3,156.9-12.8,43.7-8,87.6-18.5,126.5-39.9s72.7-55.2,86-97.6c13.3-42.6,4.9-88.5,6.6-133.1,1.6-44.6,18.9-94.9,60.7-110.4,14.1-5.3,29.5-5.8,44.5-7.5,43.9-4.8,86.1-19.2,127.9-33.5,22.7-7.8,47-16.7,60.6-36.5,7.3-10.6,10.8-23.4,14.1-35.9,16.3-61.3,32.6-122.5,48.9-183.8,8.8-33.1,17.7-67.5,12.4-101.3-5.5-35.2-27.1-67.5-57.4-86.1-13.9-8.6-29.7-14.4-41.7-25.5-12.9-11.8-20.2-28.3-31-42.1-32.1-40.8-89.9-52.3-127.1-88.6-14-13.7-24.5-30.4-35.6-46.5-44.1-64.1-99-120.7-161.5-167-14.2-10.5-29.1-20.6-45.8-26.5-30.9-10.8-64.8-6.1-97.1-1.2-32.8,4.9-65.5,9.8-98.3,14.8-38.8-1.8-81.1,13.2-116,30.4h-.4Z"/>
  <path id="man-1" class="st0" d="M1047,2240.6l-127.6,59.7-46.1,44.9-48.9,22.4v48l-8.1,35.3,65.1,80.1-116.7,249.7-33.9,55.6-185.9,164.2,51.6,105.9,74.7,52.9,81.4-36.6,80.1,69.2,119.4,8.1,88.2-16.3,6.8-152-142.5-111.3,13.2-54.9,100.8-128.4,176.4-27.1,10.9,169.1,77.4,72.5,207.2-6.8,69.7-120.8,6.8-192.7h-65.1l-54.4,251.3s-44.4-4.5-102.5-14.1c-36.8-6.1-75-21.2-75-16.1,0,27.6,1.2-101.7,1.2-101.7l-9-162.8-19.5-12.2-27.1-127.6-32.6-118.1-71.9-89.6h-63.8l-.3.2h0Z"/>
  <polygon id="man-2" class="st0" points="2368.2 2608.3 2368.2 2841.5 2178.4 2852.3 2152.5 2608.3 2205.5 2595.8 2196 2516.6 2127.9 2467.6 2061.4 2416.9 1989.5 2342.2 1920.5 2296.6 1841.4 2296.6 1781.6 2310.2 1711.6 2345.3 1626.1 2386.8 1638.8 2497.6 1725.9 2534 1833.5 2592.6 1836.7 2820.5 1890.5 2945.6 1746.4 3107 1757.5 3200.2 1812.9 3224.2 2199.1 3129.2 2167.5 3042.1 2051.9 2986.7 2046.7 2829.5 2085.2 2820.5 2134.2 2920.2 2368.2 2912.3 2416 2868 2447.6 2686 2433.4 2556.2 2374.8 2575.2 2368.2 2608.3"/>
  <polygon id="man-3" class="st0" points="3386.6 2351.2 3309.2 2325 3237.5 2312.4 3171 2269.7 3155.2 2296.6 3142.5 2369.4 3058.6 2511.9 2996.1 2583.1 2992.5 2899.8 2797.8 2904 2775 2639.6 2757.9 2586.8 2688.2 2611.9 2734.1 2959.8 2885.6 2994.6 2908.2 3156.1 3030.1 3156.1 3095.3 3124.4 3286.5 3156.1 3400.5 3008.9 3346.7 2983.6 3314.8 2926.6 3327.7 2822.1 3305.5 2801.5 3297.6 2719.2 3321.4 2627.4 3487.6 2573.6 3487.6 2423.2 3386.6 2351.2"/>
  <polygon id="man-4" class="st0" points="3702.1 2314.7 3660.5 2314.7 3608.6 2319.2 3531.9 2351.1 3487.6 2423.2 3521.4 2599.9 3702.1 2641.5 3706.9 2780.6 3734.2 2911.4 3651 3054 3661.7 3156.1 3774.6 3202.5 3809.1 3156.1 4024.2 3156.1 4057.5 3059.9 3952.2 2993.4 3952.9 2964.8 3927.9 2924.4 3912.5 2850.7 4033.7 2781.8 4144.2 2847.2 4345.1 2891.1 4511.5 2764 4462.8 2565.5 4403.9 2567.7 4334.4 2811.9 4150.4 2761.9 4191.8 2526.3 4171.6 2491.8 4109.8 2501.3 3962.4 2447.8 3887.5 2314.7 3774.6 2269.7 3702.1 2314.7"/>
  <path id="water-toilet" class="st0" d="M540.4,1276.4c22.6,0,62.6,8.3,76.5,13.4s29.5,31.2,32.2,42.1,3.5,23,10.3,31.9c3.3,4.3,7.8,7.6,10.1,12.5,2.1,4.6,1.9,10,1.4,15.1-1.9,21.1,4,44.8-11.5,59.3-22.7,21.4-69.2,17.3-99.3,25.4-17.2,4.6-40.8,20.8-57.8,45.4-13.4,19.4-22.3,47.7-23.9,53.7-6.3,22.5-17.5,42.9-25.5,64.9-9.8,26.8-30.9,54.1-59.4,53.9-28.2,0-48.6-26.5-61.1-51.8-45-91.2-43.9-203.8,2.8-294.2,3.2-6.3,6.8-12.6,11.9-17.5,4.9-4.7,11-7.9,17-10.9,60.9-30,145.3-43.3,176.4-43.2h0Z"/>
  <path id="droplet-1-1" class="st0" d="M1468.2,746c0,146.1-54.3,264.5-121.2,264.5s-36.8-9.5-52.7-26.3-46.5-.7-54.5-15.9c-10.8-20.5,7.9-67.7.9-95.3s-14.8-81-14.8-127,9.4-116.9,25.3-161.6c4.5-12.6,12-24.2,21.4-34.5,36.9-40.9,122-47.8,127.3-42.1,40.5,42.8,68.5,133.4,68.5,238.2h0Z"/>
  <path id="droplet-1-2" class="st0" d="M1573.5,1266.2c0,12.1,40.6,65.9,30.3,76.4s-6.2,38.9-18,41c-36.6,6.5-100-29.9-104.5-10.9-22.4,94.8-71.3,160.5-128.1,160.5s-46.1-11.5-65.7-31.7-58.8,25.1-67.6,9.5c-4.9-8.7-13.3-38.2-7.9-60.6s24.6-37.4,21.1-48.5c-13.4-42.3-21.1-92.2-21.1-145.6,0-152.9,63.2-276.9,141.2-276.9s128,99.9,139.2,230.9,18.6,32.2,26.7,42.4c24.4,30.5,54.3,1.8,54.3,13.5h0Z"/>
  <polygon id="droplet-1-3" class="st0" points="1347 1556.7 1318.9 1658 1262 1798.9 1327.5 1871.9 1484.5 1902.8 1519.1 1885.5 1519.1 1836 1475.8 1794 1440 1666.7 1364.6 1546 1347 1556.7"/>
  <path id="droplet-2-1" class="st0" d="M2186.6,540.6l-18.5,50.7-97.7,40.8-32.1,53.8,26,51.2h37.1l17.3,113.7,90.2,35.8s82.8-42,85.3-81.6-3.7-97.7-30.9-152-76.6-112.5-76.6-112.5h-.1Z"/>
  <path id="droplet-2-2" class="st0" d="M2195.2,963.3l-40.8,111.2-74.2,145.9-34.6,85.3s-56.9,48.2-58.1,61.8,0,56.9,0,56.9h50.7l64.3-44.5,108.8,27.2,92.7-51.9,32.1-80.3,50.7-33.4-7.4-53.2-84.8-73.6-93.2-135.3-6.2-16.1h0Z"/>
  <polygon id="droplet-2-3" class="st0" points="2186.9 1459 2160.6 1543.5 2080.3 1675.3 2092.6 1744.4 2152 1792.8 2241 1780.4 2284.2 1820 2328.7 1838.5 2344.8 1801.4 2337.4 1754.4 2294.6 1685.2 2253.3 1570.3 2212.5 1481.3 2186.9 1459"/>
  <polygon id="droplet-3-1" class="st0" points="3022 616.6 3007.5 703.6 2919.9 859.3 2942.6 953.9 3027.7 970.9 3143 940 3134.8 806.4 3072.4 665.8 3022 616.6"/>
  <path id="droplet-3-2" class="st0" d="M3017.6,1018.2l-86.4,157.6v93.9l57.4,65.6,99,7.6h84.5v-125.4s-59.3-48.5-60.5-50.4-93.9-148.8-93.9-148.8h-.1Z"/>
  <polygon id="droplet-3-3" class="st0" points="3009.6 1445.4 2898.9 1720.4 2931.2 1813.2 3040 1875.7 3129.2 1875.7 3172 1757.9 3154.2 1515.1 3097.1 1459 3009.6 1445.4"/>
  <polygon id="droplet-4-1" class="st0" points="4070.2 688.4 4027.4 808 3977.4 924.1 4009.5 1018.2 4145.2 1036.5 4182.7 1084.8 4250.5 1084.8 4250.5 1018.2 4198.8 916.9 4163.1 793.8 4097 688.4 4070.2 688.4"/>
  <polygon id="droplet-4-2" class="st0" points="4072 1097.3 3977.4 1243.7 3918.4 1281.2 3918.4 1336.5 3941.7 1356.2 3938.1 1404.4 3945.2 1466.9 4011.3 1484.7 4063.1 1416.9 4150.6 1402.6 4184.5 1327.6 4168.4 1259.7 4114 1180.5 4093.4 1097.3 4072 1097.3"/>
  <polygon id="droplet-4-3" class="st0" points="4089.8 1500.8 3989.9 1718.6 3989.9 1793.6 3918.4 1861.4 3900.6 1922.2 3939.9 1948.9 4014.9 1948.9 4023.8 1875.7 4098.8 1911.4 4355.9 1904.3 4295.2 1736.5 4282.7 1675.8 4184.5 1586.5 4089.8 1500.8"/>
  <polygon id="bucketwater-1" class="st0" points="1272.3 2651 1269.9 2847.5 1443.5 2879.3 1490.4 2675.6 1382.8 2651 1272.3 2651"/>
  <polygon id="bucketwater-2" class="st0" points="2152.5 2633 2178.4 2852.3 2368.2 2841.5 2368.2 2633 2246.3 2608.3 2152.5 2633"/>
  <polygon id="bucketwater-3" class="st0" points="2775 2639.6 2797.8 2904 2992.5 2899.8 2996.1 2611.9 2775 2639.6"/>
  <polygon id="bucketwater-4" class="st0" points="4184 2559.1 4151 2767.6 4326.4 2815.6 4397.3 2604.7 4347.5 2554.9 4184 2559.1"/>
  <rect id="life1" class="st0" x="148.6" y="149.1" width="142.4" height="250.9"/>
  <rect id="life2" class="st0" x="320.4" y="149.1" width="142.4" height="250.9"/>
  <rect id="life3" class="st0" x="520.1" y="149.1" width="142.4" height="250.9"/>
  <path id="crack1" class="st0" d="M1762.8,518.3c-44.3-35.4-111.9-77-193.2-74.7-71,2-121.6,36.6-142.9,49.6-79.8,48.7-225.2,85.9-513.9,25.1V114h849.9v404.4h0Z"/>
  <path id="crack2" class="st0" d="M1919.9,95.9c-39.9,38.9-61.9,111.8-38.6,164.8,38.2,87.2,173.1,62.9,211.2,157.1,20.8,51.5-6,92.3,25.8,118.5,27.8,22.9,76.7,15.2,108.2,0,50-24.1,44.4-61.4,108.2-115.9,17.5-15,44.1-37.7,82.4-51.5,82-29.6,127.1,14.2,167.4-10.3,58.2-35.3,70.9-191.1,0-262.7-56-56.5-115.3-11.6-370.9-20.6-174.8-6.2-241.1-30.5-293.6,20.6h0Z"/>
  <path id="crack3" class="st0" d="M2790.5,90.8c-45.2,28.7-64.3,77.9-72.1,97.9-8.6,22.2-29.8,76.5-12.9,131.4,15.4,49.8,84.3,87.1,221.5,159.7,92.8,49.1,111.4,52.4,131.4,46.4,40-12,72.5-57.9,121.1-126.2,15.1-21.2,23.7-35.6,43.8-51.5,13.4-10.6,28.6-19.3,87.6-39.3,74.7-25.4,83.2-22.7,100.4-38,27.2-24.1,47.1-67.2,33.5-87.6-15.4-23-59.6,3.6-110.7-20.6-38.6-18.3-37.3-44.7-67-72.1-56.4-52-117.1-8.1-321.9-15.5-77.6-2.8-113.4-10.7-154.5,15.5h-.2Z"/>
  <path id="crack4" class="st0" d="M4073.7,609.4c-3.6-1.2-4.6-4.7-7.5-8.2-5.2-6.4-12.6-7.9-15.8-9-13.4-4.7-56.9-39.3-72.6-63.9-35-54.7,29.1-119.5,0-151.6-26.3-28.9-85.2,16.4-146.8-20.6-28.4-17-20.3-29.3-51.5-48.6-55.9-34.6-103-8.1-123.6-36.4-16.3-22.3-1.6-58.4,10.3-87.6,6.7-16.6,38-88.1,97.9-118.5,91-46.3,145.5,54.2,309.1,59.3,143.2,4.5,218-68.8,319.4-20.6,13.2,6.3,54.4,25.9,59.2,59.2,3.6,25-16,38.6-36.1,72.1-41.8,69.9-8,97.4-46.4,177.7-23.3,48.8-35.6,38.3-69.5,103-36.9,70.2-27.2,91.8-51.5,103-45.1,20.8-149.3-21-164.8-11.6-.9.5-5.4,3.7-9.7,2.2h0Z"/>
  <path id="toilet" class="st0" d="M29.3,2123.6c24.7,65.7,336.2-16.2,449.5,20.1,6.3,2,25.9,8.8,35.2,0,11.7-11.2.3-41.1-17.6-82.9-52.8-123.3-74.5-145.6-62.8-170.8,12-25.8,39.5-12.7,85.3-52.7,11.2-9.8,42.7-39.6,57.9-87.9,5.6-17.9,23-73.3,0-92.9-20.5-17.5-53.1,10.7-130.6,22.6-54,8.3-105.2,16.1-137.4-10-35.1-28.6-33.5-86.2-30.9-178.3,2.5-87.3,18.4-128.4-10-178.3-7.2-12.6-21.2-37.2-47.7-45.2-34.6-10.5-68.2,14.2-120.5,52.7-35.7,26.3-60.5,45-70.3,77.8-8.1,27.2-2.2,50.9,0,60.3,28.4,122.8,8.5,398-4.1,572.6-.4,6.1-2.2,28.1,0,57.8,1.4,19.8,2.1,29.7,4.2,35.2h-.2Z"/>
  <polygon id="new" class="st0" points="3130.6 528.3 3130.6 528.4 2851.9 528.4 2851.9 498.8 2575.7 498.8 2575.7 528.4 2549.7 528.4 2518.2 528.4 2454.2 465 2373.5 463 2336.7 478.4 2309.4 497.5 2252.4 528.4 2021.9 528.4 2021.9 498.8 1709.3 498.8 1709.3 873 2021.9 873 2021.9 562.7 2252.4 562.7 2306.5 507.3 2336.1 483.1 2378.1 466 2441.6 467.1 2468.8 484.6 2494.3 508.5 2501.4 516.8 2513.5 529.8 2531 562.7 2575.7 562.7 2575.7 873 2851.9 873 2851.9 562.7 3130.6 562.7 3130.6 910.7 3560 910.7 3560 528.3 3130.6 528.3"/>
  <polygon id="game" class="st0" points="3449.1 945.8 3449.1 970.5 2907.2 970.5 2907.2 945.8 2535.5 945.8 2535.5 970.5 2463.5 970.5 2431.9 979.4 2381.1 970.5 2022 970.5 2022 945.8 1684.2 945.8 1684.2 970.5 1658.6 970.5 1614.6 931.1 1534.4 930 1437.3 970.5 1212.1 970.5 1212.1 945.8 1019.5 933.6 863 945.8 863 1294.9 1212.1 1294.9 1212.1 988.5 1468.3 988.5 1491.7 960.3 1508.4 946.2 1540 933.9 1581.4 933.5 1612.3 941.3 1637.8 961.6 1663.1 988.5 1684.2 988.5 1684.2 1283.6 2022 1283.6 2022 988.5 2535.5 988.5 2535.5 1299.9 2907.2 1299.9 2907.2 988.5 3449.1 988.5 3449.1 1294.9 3735.9 1294.9 3735.9 945.8 3449.1 945.8"/>
  <polygon id="over" class="st0" points="4323.5 1360.2 4323.5 1432.2 4111 1432.2 3976.3 1471 3887.9 1432.2 3735.9 1432.2 3735.9 1360.2 3449.1 1360.2 3449.1 1432.2 2877 1432.2 2877 1342.6 2507.9 1342.6 2507.9 1432.2 1950.3 1432.2 1950.3 1372.7 1793 1361 1603.8 1372.7 1603.8 1719.2 1950.3 1719.2 1950.3 1473.1 2507.9 1473.1 2507.9 1744.4 2877 1744.4 2877 1473.1 3449.1 1473.1 3449.1 1719.3 3735.9 1719.3 3735.9 1473.1 3930.4 1473.1 4018.1 1500.6 4074.9 1473.1 4323.5 1473.1 4323.5 1719.3 4627.4 1719.3 4627.4 1360.2 4323.5 1360.2"/>
  <polygon id="droplet-3-4" class="st0" points="3051.6 2032.9 2990 1941.8 2852.5 2163.2 2875.7 2277.5 2905.8 2291.7 2845.8 2408 2838.4 2403.3 2775 2491.2 2799.3 2552.6 2852.5 2552.6 2864.9 2478.7 2852.5 2412.3 2846.2 2408.2 2909.9 2293.7 2977.5 2325.7 3035.5 2257.8 3095.3 2159.6 3051.6 2032.9"/>
  <polygon id="droplet-4-4" class="st0" points="4408 2457.7 4325.6 2404.7 4325.6 2413.4 4283.1 2321.7 4314.8 2290 4298.8 2147.1 4205.9 2068.6 4128.2 2000.7 4082.7 2193.5 4138.1 2336.4 4250.5 2354.2 4277.3 2327.4 4325.6 2415.8 4325.6 2474.5 4348 2535.9 4397.3 2544.2 4423.3 2517.7 4408 2457.7"/>
  <path id="level-2" class="st0" d="M4430.9,2889.6l-37-25-67.9,51.2-127.4-55.9-252.6-42.9-45.3,17.8,51.2,140.6,107.3,64.4,18-5.8-6.3,40.2-75.5,65.4-90.3,16.5-94.6-3.6-71.9,37-69.4-23.3-39.1-58.7-35.7-69.6,67.9-13.4,52.5-108.5-14.3-50-215.7-36.9-147.7,9.5-16.7,47.7v45.2l25,41.7,74.5,29.7-114.1,166.4-203.5-46.4-72.3,33.4h-121.9l-73.6-75.2,15.3-100.7-147.7,2.4-84.6-219.2-184.7,23.8-44,124.3-37,29.4-38.6,5.8-122.2-24.9-63.2-16.7-50-77.4-28.6,2.4v114.3l34.5,78.7,111.1,10.6,5.9,77.6-77.9,69.3-183.5,19.5-181.8,42-66.7-64.9-55-174.9,227.5-60.1-40.5-119.2-222.8-76.2-59.5,163.2-123.9,50-195.4-24.8-23.9-87.2-184.6-84.5-47.7,94.1,19.1,110.8,102.9,12.9-2.2,128.3-86.6,101.1-138.5-10.6-107.3-63.6-102.2,27.7-105.4-142-7.4-121.6,42.7,2.2,156.1-84.5,27.4-33.5-70.3-110.8-88.2,46.5-151.3-19.1h0c0,.1-67.9,68-67.9,68,0,0-177.5-25-185.9-26.2s-17.9,83.4-17.9,83.4c0,0,145.3,114.4,145.3,108.4s113.2-39.3,113.2-39.3l85.9,4.4,5.8,130.8,114.3,144.6,108.2-30.3,104.3,65.6,143.3,6.3,90.9-97.3,5.2-136.9,27.3,3.4,16.6,39.4,230,94.1,197.8-100.1,57-15.1,54,178.7,72.7,68.4,182.7-42.4,190.5-16,83.1-73.5-6.9-85.1,168.8,16,202.5-63.2,103.6,120.4,132.7-15.3,74.6,63.7,145.4,2.9,70.8-31.1,206.1,49.2,125.2-169.2,11.4,4.5,138.9,27.3,90.9,141.7,58.1,11.7,7.1,1.4,72-38.7,104.8,5,57.6-10.2,25.7-3.1,83.2-76.6,9.1-41.7,34.1-11,150.1,63.2,141.8-98.9,39.1,87.4,105-25.5,34.6-58.4-165.6-96.5v-.2Z"/>
  <path id="droplet-2-4" class="st0" d="M2300.3,2331.7l56.9-61.8,8.6-87.8-25.9-68-86.6-98.8-40.8-65.6-33.3-66.7-81.6,199-12.4,113.2,47,92,110,58.1,15.4-3.6,19.4,128.2-8.9,3h-.1l4.1,40.5s-13,39.3-11.7,40.9,18.8,41.4,18.8,41.4l41.4,5.4,14.2-18.5v-61.6l-48.3-54.4h-.4c0,.1-22.5-126.3-22.5-126.3l36.7-8.6h0Z"/>
  <polygon id="droplet-1-4" class="st0" points="1462.2 2563.8 1407.1 2523.3 1390.2 2362.8 1436.3 2358.9 1456.1 2281 1437.5 2185.8 1381.9 2098.1 1348.5 2022.7 1262 2197 1275.6 2313.2 1331.2 2367.7 1382.7 2363.4 1398.8 2523.6 1375.5 2529.4 1392.7 2603.2 1421.6 2661.7 1479.4 2661.7 1499.7 2641 1462.2 2563.8"/>
  <polygon id="mush13" class="st0" points="1723.9 1766.9 1647.2 1863.9 1647.2 1960.9 1675.4 1990.6 1755.2 1975 1795.9 2068.8 1853.1 2092.3 1930.4 2056.3 1942.9 1990.6 1892.9 1902.8 1942.9 1857.6 1897.6 1777.8 1803.7 1754.3 1723.9 1766.9"/>
  <polygon id="mush12" class="st0" points="1617.5 763.9 1672.3 713.7 1655.1 623.1 1725.5 601.2 1709.3 498.8 1605.5 458.8 1489.2 481.4 1456.1 560.5 1442.3 611.4 1468.2 623.1 1508 626.2 1528.3 713.7 1539.3 753 1617.5 763.9"/>
  <polygon id="mush11" class="st0" points="2478 751.4 2359.1 801.5 2359.1 987.7 2503.1 1000.2 2578.2 918.8 2559.4 793.7 2478 751.4"/>
  <polygon id="mush10" class="st0" points="3795.5 476 3765.7 496.4 3765.7 660.7 3837.7 692 3989.5 590.3 3928.5 454.1 3795.5 476"/>
  <polygon id="mush9" class="st0" points="1155.9 873 1212.1 886.7 1232 829.3 1210.3 756.1 1107.4 729.5 1030.8 763.9 1030.8 912.6 1076.1 945.8 1123.1 945.8 1155.9 873"/>
  <polygon id="mush8" class="st0" points="2352.9 458.8 2266.8 546.4 2266.8 602.8 2340.4 611.4 2331 751.4 2528.1 723.3 2540.6 485.4 2437.4 458.8 2352.9 458.8"/>
  <polygon id="mush7" class="st0" points="3427.8 327.4 3376.1 388.4 3402 408.8 3376.1 471.3 3438.7 507.3 3498.2 458.8 3542 458.8 3542 335.2 3427.8 327.4"/>
  <polygon id="mush6" class="st0" points="3675.8 657.5 3556.1 706 3556.1 842.2 3765.7 914.1 3795.5 757.7 3721.9 670.1 3675.8 657.5"/>
  <polygon id="mush5" class="st0" points="1634.7 1134.7 1576.8 1152 1529.9 1095.6 1529.9 1056.5 1478.3 1078.4 1456.1 1040.9 1486.1 945.8 1551.8 925.1 1647.2 945.8 1661.3 979.4 1647.2 1010.5 1661.3 1055 1672.3 1114.7 1634.7 1134.7"/>
  <polygon id="mush4" class="st0" points="3606.1 375.9 3556.1 480.7 3556.1 530.8 3681.2 637.2 3765.7 615.3 3765.7 496.4 3795.5 417.4 3606.1 375.9"/>
  <polygon id="mush3" class="st0" points="3844 785.8 3795.5 851.6 3869 970.5 3972.3 943.9 3941 809.3 3844 785.8"/>
  <polygon id="mush2" class="st0" points="4554.3 573 4416.6 580.9 4437 375.9 4554.3 366.5 4631 446.3 4631 559 4554.3 573"/>
  <polygon id="mush1" class="st0" points="4588.7 580.9 4452.6 580.9 4401 657.5 4432.3 713.9 4615.3 731.1 4588.7 580.9"/>
</svg>